<svg xmlns="http://www.w3.org/2000/svg" xmlns:xlink="http://www.w3.org/1999/xlink" xmlns:lucid="lucid" width="1182" height="1326"><g transform="translate(-399 201)" lucid:page-tab-id="0_0"><path d="M0-500h2000v2000H0z" fill="#0b1220"/><path d="M400-194a6 6 0 0 1 6-6h568a6 6 0 0 1 6 6v568a6 6 0 0 1-6 6H406a6 6 0 0 1-6-6z" fill-opacity="0"/><path d="M448.07-200h42.08m21.04 0h42.06m21.04 0h42.07m21.04 0h42.08m21.04 0h42.07m21.03 0h42.07m21.04 0h42.08m21.03 0h42.08m21.03 0H974a6 6 0 0 1 6 6v21.04m0 21.03v42.08m0 21.03v42.08m0 21.04v42.07m0 21.04V79.5m0 21.04v42.07m0 21.03v42.07m0 21.04v42.07m0 21.05v42.08m0 21.03V374a6 6 0 0 1-6 6h-21.04m-21.03 0h-42.08m-21.03 0h-42.08m-21.04 0h-42.07m-21.04 0H700.5m-21.04 0H637.4m-21.03 0H574.3m-21.04 0H511.2m-21.05 0h-42.08m-21.03 0H406a6 6 0 0 1-6-6v-21.04m0-21.03v-42.08m0-21.04v-42.06m0-21.04v-42.07m0-21.04V100.5m0-21.04V37.4m0-21.03V-25.7m0-21.04V-88.8m0-21.05v-42.08m0-21.03V-194a6 6 0 0 1 6-6h21.04" stroke="#fff" stroke-width="2" fill="none"/><use xlink:href="#a" transform="matrix(1,0,0,1,405,-195) translate(156.15885416666666 25.833333333333336)"/><use xlink:href="#b" transform="matrix(1,0,0,1,405,-195) translate(251.328125 25.833333333333336)"/><path d="M1020-194a6 6 0 0 1 6-6h548a6 6 0 0 1 6 6v568a6 6 0 0 1-6 6h-548a6 6 0 0 1-6-6z" fill-opacity="0"/><path d="M1066.6-200h40.6m20.28 0h40.6m20.3 0h40.58m20.3 0h40.6m20.3 0h40.58m20.3 0h40.6m20.3 0h40.58m20.3 0h40.6m20.28 0h20.3a6 6 0 0 1 6 6v21.04m0 21.03v42.08m0 21.03v42.08m0 21.04v42.07m0 21.04V79.5m0 21.04v42.07m0 21.03v42.07m0 21.04v42.07m0 21.05v42.08m0 21.03V374a6 6 0 0 1-6 6h-20.3m-20.3 0h-40.6m-20.28 0h-40.6m-20.3 0h-40.58m-20.3 0h-40.6m-20.3 0h-40.58m-20.3 0h-40.6m-20.3 0h-40.58m-20.3 0h-40.6m-20.28 0H1026a6 6 0 0 1-6-6v-21.04m0-21.03v-42.08m0-21.04v-42.06m0-21.04v-42.07m0-21.04V100.5m0-21.04V37.4m0-21.03V-25.7m0-21.04V-88.8m0-21.05v-42.08m0-21.03V-194a6 6 0 0 1 6-6h20.3" stroke="#fff" stroke-width="2" fill="none"/><use xlink:href="#c" transform="matrix(1,0,0,1,1025,-195) translate(220.65104166666666 25.833333333333336)"/><use xlink:href="#d" transform="matrix(1,0,0,1,1025,-195) translate(272.265625 25.833333333333336)"/><path d="M550-99a6 6 0 0 1 6-6h268a6 6 0 0 1 6 6v48a6 6 0 0 1-6 6H556a6 6 0 0 1-6-6z" stroke="#1071e5" stroke-width="2" fill-opacity="0"/><use xlink:href="#e" transform="matrix(1,0,0,1,562,-93) translate(92.71354166666666 26.02777777777778)"/><path d="M690-43.5v41.12" stroke="#fff" fill="none"/><path d="M690.48-43.5h-.96v-.5h.96z" stroke="#fff" stroke-width=".05" fill="#fff"/><path d="M690 12.38l-4.63-14.26h9.26z" stroke="#fff" fill="#fff"/><path d="M550 21a6 6 0 0 1 6-6h268a6 6 0 0 1 6 6v48a6 6 0 0 1-6 6H556a6 6 0 0 1-6-6z" stroke="#1071e5" stroke-width="2" fill-opacity="0"/><use xlink:href="#f" transform="matrix(1,0,0,1,562,27) translate(41.84548611111113 26.02777777777778)"/><use xlink:href="#g" transform="matrix(1,0,0,1,562,27) translate(103.34722222222223 26.02777777777778)"/><path d="M690 76.5v41.12" stroke="#dfe3e8" fill="none"/><path d="M690.48 76.5h-.96V76h.96z" stroke="#dfe3e8" stroke-width=".05" fill="#dfe3e8"/><path d="M690 132.38l-4.63-14.26h9.26z" stroke="#dfe3e8" fill="#dfe3e8"/><path d="M550 141a6 6 0 0 1 6-6h268a6 6 0 0 1 6 6v48a6 6 0 0 1-6 6H556a6 6 0 0 1-6-6z" stroke="#1071e5" stroke-width="2" fill-opacity="0"/><use xlink:href="#h" transform="matrix(1,0,0,1,562,147) translate(49.185980902777786 26.02777777777778)"/><use xlink:href="#i" transform="matrix(1,0,0,1,562,147) translate(130.587890625 26.02777777777778)"/><path d="M831.5 172.92h311.12" stroke="#dfe3e8" fill="none"/><path d="M831.5 173.4h-.5v-.95h.5z" stroke="#dfe3e8" stroke-width=".05" fill="#dfe3e8"/><path d="M1157.38 172.92l-14.26 4.64v-9.27z" stroke="#dfe3e8" fill="#dfe3e8"/><path d="M690 196.5v41.12" stroke="#dfe3e8" fill="none"/><path d="M690.48 196.5h-.96v-.5h.96z" stroke="#dfe3e8" stroke-width=".05" fill="#dfe3e8"/><path d="M690 252.38l-4.63-14.26h9.26z" stroke="#dfe3e8" fill="#dfe3e8"/><path d="M400 430a6 6 0 0 1 6-6h1168a6 6 0 0 1 6 6v688a6 6 0 0 1-6 6H406a6 6 0 0 1-6-6z" fill-opacity="0"/><path d="M446.98 424h40.98m20.5 0h40.98m20.5 0h40.97m20.5 0h41m20.48 0h40.98m20.5 0h40.97m20.5 0h40.98m20.5 0h40.98m20.5 0h40.97m20.5 0h40.98m20.5 0h40.97m20.5 0h40.97m20.5 0h40.98m20.5 0h40.97m20.5 0h40.98m20.5 0h40.97m20.5 0h40.97m20.5 0h40.98m20.5 0H1574a6 6 0 0 1 6 6v20.85m0 20.85v41.7m0 20.84v41.7m0 20.85v41.7m0 20.83v41.7m0 20.85v41.7m0 20.84v41.7m0 20.85v41.7m0 20.85v41.7m0 20.84v41.7m0 20.85v41.7m0 20.85V1118a6 6 0 0 1-6 6h-20.5m-20.48 0h-40.98m-20.5 0h-40.98m-20.5 0h-40.97m-20.5 0h-41m-20.48 0h-40.98m-20.5 0h-40.97m-20.5 0h-40.98m-20.5 0h-40.98m-20.5 0h-40.97m-20.5 0h-40.98m-20.5 0H877.3m-20.5 0h-40.97m-20.5 0h-40.98m-20.5 0H692.9m-20.5 0H631.4m-20.5 0h-40.97m-20.5 0h-40.97m-20.5 0h-40.98m-20.5 0H406a6 6 0 0 1-6-6v-20.85m0-20.85v-41.7m0-20.84v-41.7m0-20.85v-41.7m0-20.83v-41.7m0-20.85v-41.7m0-20.84v-41.7m0-20.85v-41.7m0-20.85v-41.7m0-20.84v-41.7m0-20.85v-41.7m0-20.85V430a6 6 0 0 1 6-6h20.5" stroke="#fff" stroke-width="2" fill="none"/><use xlink:href="#j" transform="matrix(1,0,0,1,405,429.0000499999999) translate(432.1484375 25.833333333333336)"/><use xlink:href="#k" transform="matrix(1,0,0,1,405,429.0000499999999) translate(591.6015625 25.833333333333336)"/><path d="M690-43.5v41.12" stroke="#fff" fill="none"/><path d="M690.48-43.5h-.96v-.5h.96z" stroke="#fff" stroke-width=".05" fill="#fff"/><path d="M690 12.38l-4.63-14.26h9.26z" stroke="#fff" fill="#fff"/><path d="M850 490a6 6 0 0 1 6-6h268a6 6 0 0 1 6 6v48a6 6 0 0 1-6 6H856a6 6 0 0 1-6-6z" stroke="#1071e5" stroke-width="2" fill-opacity="0"/><use xlink:href="#l" transform="matrix(1,0,0,1,862,496.0000499999999) translate(101.71419270833333 26.02777777777778)"/><path d="M985.2 607.6a8 8 0 0 1 9.6 0l70.4 52.8a4.5 4.5 0 0 1 0 7.2l-70.4 52.8a8 8 0 0 1-9.6 0l-70.4-52.8a4.5 4.5 0 0 1 0-7.2z" stroke="#fc9432" stroke-width="2" fill-opacity="0"/><use xlink:href="#m" transform="matrix(1,0,0,1,915,609.0000499999999) translate(51.806215277777774 45.59027777777778)"/><use xlink:href="#n" transform="matrix(1,0,0,1,915,609.0000499999999) translate(38.63347222222222 77.85590277777777)"/><path d="M990 545.5v43.1" stroke="#dfe3e8" fill="none"/><path d="M990.48 545.5h-.96v-.5h.96z" stroke="#dfe3e8" stroke-width=".05" fill="#dfe3e8"/><path d="M990 603.38l-4.63-14.27h9.26z" stroke="#dfe3e8" fill="#dfe3e8"/><path d="M680 790a6 6 0 0 1 6-6h148a6 6 0 0 1 6 6v48a6 6 0 0 1-6 6H686a6 6 0 0 1-6-6z" stroke="#1071e5" stroke-width="2" fill-opacity="0"/><use xlink:href="#o" transform="matrix(1,0,0,1,692,796.0000499999999) translate(33.055338541666664 26.02777777777778)"/><path d="M1120 790a6 6 0 0 1 6-6h148a6 6 0 0 1 6 6v48a6 6 0 0 1-6 6h-148a6 6 0 0 1-6-6z" stroke="#1071e5" stroke-width="2" fill-opacity="0"/><use xlink:href="#p" transform="matrix(1,0,0,1,1132,796.0000499999999) translate(29.881510416666664 26.02777777777778)"/><path d="M1200.97 764.5h-1.94v-89.75h1.94zM1069 664.98V663h108.7V665z" stroke="#008a0e" stroke-width=".05" fill="#008a0e"/><path d="M1069.03 664.98h-1.12l.1-.98-.1-.98h1.13z" fill="#008a0e"/><path stroke="#008a0e" stroke-width=".05" fill="#008a0e"/><path d="M1200 779.76l-4.63-14.26h9.27z" fill="#008a0e"/><path d="M1200 782.92l-5.98-18.4h11.96zm-3.3-16.45l3.3 10.14 3.3-10.13z" stroke="#008a0e" stroke-width=".05" fill="#008a0e"/><use xlink:href="#q" transform="matrix(1,0,0,1,1177.70355035602,653.2448416666665) translate(0 17.22222222222222)"/><path d="M765.77 666.17l-.32.28-.52.6-.4.67-.3.73-.2.76-.06.84v94.46h-1.95v-94.54l.08-1.05.26-1.06.42-1 .57-.94.7-.83.84-.72.87-.53zm145.23-1.2H790.22v-1.95H911z" stroke="#e81313" stroke-width=".05" fill="#e81313"/><path d="M912 664l.1.98h-1.13V663h1.12z" fill="#e81313"/><path stroke="#e81313" stroke-width=".05" fill="#e81313"/><path d="M763 779.76l-4.64-14.26h9.27z" fill="#e81313"/><path d="M763 782.92l-5.98-18.4h11.95zm-3.3-16.45l3.3 10.14 3.3-10.13z" stroke="#e81313" stroke-width=".05" fill="#e81313"/><use xlink:href="#r" transform="matrix(1,0,0,1,765.7691165898451,653.2448416666665) translate(0 17.22222222222222)"/><path d="M910 969.97a6 6 0 0 1 6-6h148a6 6 0 0 1 6 6v48a6 6 0 0 1-6 6H916a6 6 0 0 1-6-6z" stroke="#1071e5" stroke-width="2" fill-opacity="0"/><use xlink:href="#s" transform="matrix(1,0,0,1,922,975.9729444617094) translate(9.899956597222236 26.02777777777778)"/><path d="M1200 845.5V898a6 6 0 0 1-6 6H996a6 6 0 0 0-6 6v36.6" stroke="#dfe3e8" fill="none"/><path d="M1200.47 845.5h-.94v-.5h.94z" stroke="#dfe3e8" stroke-width=".05" fill="#dfe3e8"/><path d="M990 961.36l-4.63-14.27h9.26z" stroke="#dfe3e8" fill="#dfe3e8"/><path d="M760 845.5V898a6 6 0 0 0 6 6h218a6 6 0 0 1 6 6v36.6" stroke="#dfe3e8" fill="none"/><path d="M760.48 845.5h-.96v-.5h.96z" stroke="#dfe3e8" stroke-width=".05" fill="#dfe3e8"/><path d="M990 961.36l-4.63-14.27h9.26z" stroke="#dfe3e8" fill="#dfe3e8"/><path d="M1420 1038.1c0 7-35.82 12.67-80 12.67s-80-5.67-80-12.67V936.68c0-7 35.82-12.68 80-12.68s80 5.68 80 12.68z" stroke="#1071e5" stroke-width="2" fill-opacity="0"/><path d="M1420 936.68c0 7-35.82 12.68-80 12.68s-80-5.68-80-12.68" stroke="#1071e5" stroke-width="2" fill="none"/><use xlink:href="#t" transform="matrix(1,0,0,1,1272,961.3548677083331) translate(1.3767361111111143 31.27777777777778)"/><use xlink:href="#u" transform="matrix(1,0,0,1,1272,961.3548677083331) translate(70.12673611111111 31.27777777777778)"/><use xlink:href="#v" transform="matrix(1,0,0,1,1272,961.3548677083331) translate(43.49370659722222 63.54340277777778)"/><path d="M1258.5 993.97h-171.12" stroke="#dfe3e8" fill="none"/><path d="M1259 994.45h-.5v-.95h.5z" stroke="#dfe3e8" stroke-width=".05" fill="#dfe3e8"/><path d="M1072.62 993.97l14.26-4.63v9.27z" stroke="#dfe3e8" fill="#dfe3e8"/><path d="M1131.5 514H1294a6 6 0 0 0 6-6V332.38" stroke="#dfe3e8" fill="none"/><path d="M1131.5 514.48h-.5v-.96h.5z" stroke="#dfe3e8" stroke-width=".05" fill="#dfe3e8"/><path d="M1300 317.62l4.63 14.26h-9.27z" stroke="#dfe3e8" fill="#dfe3e8"/><path d="M550 261a6 6 0 0 1 6-6h268a6 6 0 0 1 6 6v48a6 6 0 0 1-6 6H556a6 6 0 0 1-6-6z" stroke="#1071e5" stroke-width="2" fill-opacity="0"/><use xlink:href="#w" transform="matrix(1,0,0,1,562,267) translate(47.921875 26.02777777777778)"/><use xlink:href="#x" transform="matrix(1,0,0,1,562,267) translate(135.31336805555554 26.02777777777778)"/><use xlink:href="#y" transform="matrix(1,0,0,1,562,267) translate(155.87543402777777 26.02777777777778)"/><path d="M831.5 285h311.12" stroke="#dfe3e8" fill="none"/><path d="M831.5 285.48h-.5v-.96h.5z" stroke="#dfe3e8" stroke-width=".05" fill="#dfe3e8"/><path d="M1157.38 285l-14.26 4.63v-9.26z" stroke="#dfe3e8" fill="#dfe3e8"/><path d="M1160 261a6 6 0 0 1 6-6h268a6 6 0 0 1 6 6v48a6 6 0 0 1-6 6h-268a6 6 0 0 1-6-6z" stroke="#1071e5" stroke-width="2" fill-opacity="0"/><g><use xlink:href="#z" transform="matrix(1,0,0,1,1172,267) translate(71.72287326388889 26.02777777777778)"/></g><path d="M1160 148.92a6 6 0 0 1 6-6h268a6 6 0 0 1 6 6v48a6 6 0 0 1-6 6h-268a6 6 0 0 1-6-6z" stroke="#1071e5" stroke-width="2" fill-opacity="0"/><g><use xlink:href="#A" transform="matrix(1,0,0,1,1172,154.92097873753738) translate(56.13585069444446 26.02777777777778)"/><use xlink:href="#B" transform="matrix(1,0,0,1,1172,154.92097873753738) translate(134.87934027777777 26.02777777777778)"/></g><defs><path fill="#fff" d="M135 0v-1490h305v1237h643V0H135" id="C"/><path fill="#fff" d="M789 20C394 20 94-260 94-744c0-487 300-766 695-766s695 279 695 766c0 485-300 764-695 764zm0-271c231 0 385-174 385-493 0-321-154-495-385-495s-385 175-385 495c0 319 154 493 385 493" id="D"/><path fill="#fff" d="M786 20C389 20 94-260 94-744c0-487 299-766 692-766 339 0 597 194 641 529h-309c-28-162-156-258-326-258-233 0-388 179-388 495 0 323 157 493 387 493 170 0 298-97 328-259h309c-34 277-266 530-642 530" id="E"/><path fill="#fff" d="M49 0l509-1490h400L1480 0h-339l-115-346H497L386 0H49zm524-585h374c-75-213-124-402-192-666-66 268-110 453-182 666" id="F"/><g id="a"><use transform="matrix(0.013020833333333334,0,0,0.013020833333333334,0,0)" xlink:href="#C"/><use transform="matrix(0.013020833333333334,0,0,0.013020833333333334,14.322916666666668,0)" xlink:href="#D"/><use transform="matrix(0.013020833333333334,0,0,0.013020833333333334,34.869791666666664,0)" xlink:href="#E"/><use transform="matrix(0.013020833333333334,0,0,0.013020833333333334,53.8671875,0)" xlink:href="#F"/><use transform="matrix(0.013020833333333334,0,0,0.013020833333333334,73.77604166666667,0)" xlink:href="#C"/></g><path fill="#fff" d="M750 21c-371 0-615-218-615-544v-967h305v942c0 174 123 299 310 299s309-125 309-299v-942h306v967c0 326-247 544-615 544" id="G"/><path fill="#fff" d="M75-1237v-253h1217v253H837V0H531v-1237H75" id="H"/><path fill="#fff" d="M135 0v-1490h305v602h649v-602h306V0h-306v-635H440V0H135" id="I"/><path fill="#fff" d="M135 0v-1490h581c339 0 533 192 533 485 0 204-94 351-264 424L1302 0H964L680-532H440V0H135zm305-779h220c186 0 274-77 274-226 0-150-88-233-275-233H440v459" id="J"/><path fill="#fff" d="M440-1490V0H135v-1490h305" id="K"/><path fill="#fff" d="M135 0v-1490h340l471 754c59 97 122 210 187 365-32-387-14-721-19-1119h312V0h-341C855-382 627-689 427-1113c32 420 16 695 20 1113H135" id="L"/><path fill="#fff" d="M795 20C377 20 94-272 94-743c0-483 302-767 694-767 335 0 593 206 635 500h-310c-42-142-154-229-320-229-230 0-389 177-389 493s154 495 393 495c212 0 340-120 345-311H818v-232h620v186c0 391-269 628-643 628" id="M"/><g id="b"><use transform="matrix(0.013020833333333334,0,0,0.013020833333333334,0,0)" xlink:href="#F"/><use transform="matrix(0.013020833333333334,0,0,0.013020833333333334,19.388020833333336,0)" xlink:href="#G"/><use transform="matrix(0.013020833333333334,0,0,0.013020833333333334,38.90625,0)" xlink:href="#H"/><use transform="matrix(0.013020833333333334,0,0,0.013020833333333334,56.70572916666667,0)" xlink:href="#I"/><use transform="matrix(0.013020833333333334,0,0,0.013020833333333334,76.62760416666667,0)" xlink:href="#D"/><use transform="matrix(0.013020833333333334,0,0,0.013020833333333334,97.17447916666667,0)" xlink:href="#J"/><use transform="matrix(0.013020833333333334,0,0,0.013020833333333334,114.6875,0)" xlink:href="#K"/><use transform="matrix(0.013020833333333334,0,0,0.013020833333333334,122.17447916666667,0)" xlink:href="#L"/><use transform="matrix(0.013020833333333334,0,0,0.013020833333333334,142.5,0)" xlink:href="#M"/></g><g id="c"><use transform="matrix(0.013020833333333334,0,0,0.013020833333333334,0,0)" xlink:href="#M"/><use transform="matrix(0.013020833333333334,0,0,0.013020833333333334,20.013020833333336,0)" xlink:href="#K"/><use transform="matrix(0.013020833333333334,0,0,0.013020833333333334,27.5,0)" xlink:href="#H"/></g><path fill="#fff" d="M135 0v-1490h591c327 0 492 160 492 383 0 177-115 286-268 320v15c168 8 326 140 326 361 0 236-176 411-512 411H135zm305-251h264c179 0 258-76 258-189 0-125-97-215-250-215H440v404zm0-613h241c131 0 228-74 228-194 0-109-79-183-222-183H440v377" id="N"/><g id="d"><use transform="matrix(0.013020833333333334,0,0,0.013020833333333334,0,0)" xlink:href="#I"/><use transform="matrix(0.013020833333333334,0,0,0.013020833333333334,19.921875,0)" xlink:href="#G"/><use transform="matrix(0.013020833333333334,0,0,0.013020833333333334,39.44010416666667,0)" xlink:href="#N"/></g><path fill="#fff" d="M52 0l541-1490h220L1361 0h-200l-149-416H398L254 0H52zm404-582h497c-103-290-145-390-251-756-108 377-145 460-246 756" id="O"/><path fill="#fff" d="M537 14c-226 0-379-139-379-422v-710h180v695c0 172 97 275 253 275 160 0 281-109 281-300v-670h181V0H879v-209C806-46 684 14 537 14" id="P"/><path fill="#fff" d="M598-1118v154H368v674c0 100 37 144 132 144 23 0 62-6 92-12L629-6c-37 13-88 20-134 20-193 0-307-107-307-290v-688H20v-154h168v-266h180v266h230" id="Q"/><path fill="#fff" d="M338-670V0H158v-1490h180v566c73-149 190-208 336-208 226 0 379 139 379 422V0H872v-695c0-172-96-275-252-275-161 0-282 109-282 300" id="R"/><path fill="#fff" d="M613 24c-304 0-509-231-509-576 0-350 205-580 509-580 305 0 511 230 511 580 0 345-206 576-511 576zm0-161c226 0 329-195 329-415 0-222-103-419-329-419-223 0-326 196-326 419 0 220 103 415 326 415" id="S"/><path fill="#fff" d="M158 0v-1118h174v172h12c41-113 157-188 290-188 26 0 70 2 91 3v181c-11-2-60-10-108-10-161 0-279 109-279 260V0H158" id="T"/><g id="e"><use transform="matrix(0.010850694444444444,0,0,0.010850694444444444,0,0)" xlink:href="#O"/><use transform="matrix(0.010850694444444444,0,0,0.010850694444444444,15.33203125,0)" xlink:href="#P"/><use transform="matrix(0.010850694444444444,0,0,0.010850694444444444,28.47222222222222,0)" xlink:href="#Q"/><use transform="matrix(0.010850694444444444,0,0,0.010850694444444444,35.7421875,0)" xlink:href="#R"/><use transform="matrix(0.010850694444444444,0,0,0.010850694444444444,48.88237847222222,0)" xlink:href="#S"/><use transform="matrix(0.010850694444444444,0,0,0.010850694444444444,62.20703125,0)" xlink:href="#T"/></g><path fill="#fff" d="M458 0L52-1490h194c108 439 233 855 324 1313 92-459 221-873 331-1313h216c110 438 234 854 330 1307 92-455 216-869 323-1307h196L1558 0h-221l-256-944c-26-95-50-200-73-331-22 122-44 223-73 331L680 0H458" id="U"/><path fill="#fff" d="M158 0v-1118h180V0H158zm91-1301c-68 0-125-53-125-119s57-119 125-119c69 0 126 53 126 119s-57 119-126 119" id="V"/><path fill="#fff" d="M628 24c-324 0-524-230-524-574 0-343 198-582 503-582 237 0 487 146 487 559v75H286c9 234 145 362 343 362 132 0 231-58 273-172l174 48C1024-91 857 24 628 24zM287-650h624c-17-190-120-322-304-322-192 0-309 151-320 322" id="W"/><g id="f"><use transform="matrix(0.010850694444444444,0,0,0.010850694444444444,0,0)" xlink:href="#U"/><use transform="matrix(0.010850694444444444,0,0,0.010850694444444444,21.14800347222222,0)" xlink:href="#T"/><use transform="matrix(0.010850694444444444,0,0,0.010850694444444444,29.861111111111104,0)" xlink:href="#V"/><use transform="matrix(0.010850694444444444,0,0,0.010850694444444444,35.24305555555555,0)" xlink:href="#Q"/><use transform="matrix(0.010850694444444444,0,0,0.010850694444444444,42.29600694444444,0)" xlink:href="#W"/></g><path fill="#fff" d="M180 0v-1490h270l367 940c28 72 75 218 110 339 35-117 81-264 110-339l362-940h271V0h-187c2-448-5-837 7-1287-157 497-311 829-483 1287H842C666-458 514-784 354-1284c12 438 5 843 7 1284H180" id="X"/><path fill="#fff" d="M471 26C259 26 90-98 90-318c0-256 228-303 435-329 202-27 287-16 287-108 0-139-79-219-234-219-161 0-248 86-283 164l-173-57c86-203 278-265 451-265 150 0 419 46 419 395V0H815v-152h-12C765-73 660 26 471 26zm31-159c199 0 310-134 310-271v-155c-30 35-226 55-295 64-131 17-246 59-246 186 0 116 97 176 231 176" id="Y"/><path fill="#fff" d="M158 0v-1490h180v865h22l478-493h223L593-638 1096 0H865L456-523 338-412V0H158" id="Z"/><path fill="#fff" d="M577 24c-279 0-473-224-473-580 0-354 195-576 474-576 218 0 287 134 324 193h14v-551h180V0H922v-173h-20C865-111 790 24 577 24zm27-161c203 0 314-172 314-421 0-247-108-413-314-413-212 0-317 181-317 413 0 235 108 421 317 421" id="aa"/><path fill="#fff" d="M409 0L70-1118h191c89 329 165 560 243 925 75-353 154-601 240-925h192c85 325 161 564 235 922 77-354 157-598 244-922h191L1267 0h-179c-86-307-176-590-250-913C763-588 675-308 588 0H409" id="ab"/><path fill="#fff" d="M338-670V0H158v-1118h173l1 207c72-158 192-221 342-221 226 0 378 139 378 422V0H872v-695c0-172-96-275-252-275-161 0-282 109-282 300" id="ac"/><g id="g"><use transform="matrix(0.010850694444444444,0,0,0.010850694444444444,0,0)" xlink:href="#X"/><use transform="matrix(0.010850694444444444,0,0,0.010850694444444444,20.07378472222222,0)" xlink:href="#Y"/><use transform="matrix(0.010850694444444444,0,0,0.010850694444444444,32.55208333333333,0)" xlink:href="#T"/><use transform="matrix(0.010850694444444444,0,0,0.010850694444444444,41.265190972222214,0)" xlink:href="#Z"/><use transform="matrix(0.010850694444444444,0,0,0.010850694444444444,52.96223958333333,0)" xlink:href="#aa"/><use transform="matrix(0.010850694444444444,0,0,0.010850694444444444,66.56901041666666,0)" xlink:href="#S"/><use transform="matrix(0.010850694444444444,0,0,0.010850694444444444,79.49218749999999,0)" xlink:href="#ab"/><use transform="matrix(0.010850694444444444,0,0,0.010850694444444444,97.67795138888887,0)" xlink:href="#ac"/></g><path fill="#fff" d="M763 24c-353 0-583-224-583-531v-983h190v968c0 214 149 370 393 370 243 0 391-156 391-370v-968h190v983c0 307-230 531-581 531" id="ad"/><path fill="#fff" d="M158 418v-1536h174v179h20c37-59 106-193 324-193 279 0 474 222 474 576 0 356-194 580-473 580-213 0-288-135-325-197h-14v591H158zm492-555c209 0 317-186 317-421 0-232-105-413-317-413-206 0-314 166-314 413 0 249 111 421 314 421" id="ae"/><path fill="#fff" d="M338-1490V0H158v-1490h180" id="af"/><g id="h"><use transform="matrix(0.010850694444444444,0,0,0.010850694444444444,0,0)" xlink:href="#ad"/><use transform="matrix(0.010850694444444444,0,0,0.010850694444444444,16.536458333333332,0)" xlink:href="#ae"/><use transform="matrix(0.010850694444444444,0,0,0.010850694444444444,30.143229166666664,0)" xlink:href="#af"/><use transform="matrix(0.010850694444444444,0,0,0.010850694444444444,35.52517361111111,0)" xlink:href="#S"/><use transform="matrix(0.010850694444444444,0,0,0.010850694444444444,49.06684027777778,0)" xlink:href="#Y"/><use transform="matrix(0.010850694444444444,0,0,0.010850694444444444,61.545138888888886,0)" xlink:href="#aa"/></g><path fill="#fff" d="M370-1490V0H180v-1490h190" id="ag"/><path fill="#fff" d="M158 0v-1118h175l1 205c55-151 181-225 313-225 147 0 245 90 285 228 53-141 190-228 352-228 194 0 352 125 352 384V0h-181v-749c0-161-105-225-225-225-151 0-243 103-243 244V0H807v-767c0-124-93-207-219-207-131 0-250 92-250 270V0H158" id="ah"/><path fill="#fff" d="M611 442c-248 0-391-105-460-228l146-94c47 65 117 165 314 165 178 0 307-82 307-266v-224h-17C863-141 792-18 576-18c-268 0-472-195-472-546 0-346 197-568 476-568 216 0 288 133 326 193h17v-179h175V29c0 289-215 413-487 413zm-5-620c203 0 314-146 314-390 0-237-108-403-314-403-213 0-319 180-319 403 0 230 109 390 319 390" id="ai"/><path fill="#fff" d="M538 24C308 24 148-78 108-271l171-41c32 123 123 178 257 178 156 0 256-77 256-169 0-77-54-128-164-154l-186-44c-203-48-300-148-300-305 0-192 176-326 414-326 230 0 351 112 402 269l-163 42c-31-80-94-158-238-158-133 0-233 69-233 162 0 83 57 129 188 160l169 40c203 48 298 149 298 302 0 196-179 339-441 339" id="aj"/><g id="i"><use transform="matrix(0.010850694444444444,0,0,0.010850694444444444,0,0)" xlink:href="#ag"/><use transform="matrix(0.010850694444444444,0,0,0.010850694444444444,5.967881944444445,0)" xlink:href="#ah"/><use transform="matrix(0.010850694444444444,0,0,0.010850694444444444,25.43402777777778,0)" xlink:href="#Y"/><use transform="matrix(0.010850694444444444,0,0,0.010850694444444444,37.912326388888886,0)" xlink:href="#ai"/><use transform="matrix(0.010850694444444444,0,0,0.010850694444444444,51.54079861111111,0)" xlink:href="#W"/><use transform="matrix(0.010850694444444444,0,0,0.010850694444444444,64.49652777777777,0)" xlink:href="#aj"/></g><path fill="#fff" d="M681 22C323 22 94-145 85-462h297c10 151 131 226 296 226 163 0 271-77 271-190 0-102-95-149-257-189l-164-41c-252-61-403-188-403-405 0-269 236-449 560-449 330 0 546 183 551 445H941c-11-119-106-188-259-188-156 0-244 72-244 172-3 156 226 185 373 221 250 61 445 186 445 436 0 271-213 446-575 446" id="ak"/><path fill="#fff" d="M659 0H135v-1490h529c448 0 721 280 721 744 0 466-273 746-726 746zM440-263h204c287 0 437-148 437-483 0-333-150-481-435-481H440v964" id="al"/><path fill="#fff" d="M135 0v-1490h997v253H440v360h640v249H440v375h694V0H135" id="am"/><g id="j"><use transform="matrix(0.013020833333333334,0,0,0.013020833333333334,0,0)" xlink:href="#I"/><use transform="matrix(0.013020833333333334,0,0,0.013020833333333334,19.921875,0)" xlink:href="#F"/><use transform="matrix(0.013020833333333334,0,0,0.013020833333333334,39.427083333333336,0)" xlink:href="#ak"/><use transform="matrix(0.013020833333333334,0,0,0.013020833333333334,56.888020833333336,0)" xlink:href="#I"/><use transform="matrix(0.013020833333333334,0,0,0.013020833333333334,76.80989583333334,0)" xlink:href="#L"/><use transform="matrix(0.013020833333333334,0,0,0.013020833333333334,97.13541666666669,0)" xlink:href="#D"/><use transform="matrix(0.013020833333333334,0,0,0.013020833333333334,117.6822916666667,0)" xlink:href="#al"/><use transform="matrix(0.013020833333333334,0,0,0.013020833333333334,136.94010416666669,0)" xlink:href="#am"/></g><path fill="#fff" d="M135 0v-1490h581c339 0 533 210 533 503 0 295-197 500-540 500H440V0H135zm305-733h220c186 0 274-104 274-254s-88-251-275-251H440v505" id="an"/><path fill="#fff" d="M135 0v-1490h980v253H440v416h609v249H440V0H135" id="ao"/><path fill="#fff" d="M135 0v-1490h468l242 684c30 94 76 293 111 455 34-161 80-360 110-455l238-684h470V0h-307c0-447-3-765 11-1227-122 503-246 788-395 1227H826C676-435 552-717 427-1215c15 453 11 775 11 1215H135" id="ap"/><g id="k"><use transform="matrix(0.013020833333333334,0,0,0.013020833333333334,0,0)" xlink:href="#an"/><use transform="matrix(0.013020833333333334,0,0,0.013020833333333334,17.278645833333336,0)" xlink:href="#C"/><use transform="matrix(0.013020833333333334,0,0,0.013020833333333334,32.356770833333336,0)" xlink:href="#F"/><use transform="matrix(0.013020833333333334,0,0,0.013020833333333334,49.895833333333336,0)" xlink:href="#H"/><use transform="matrix(0.013020833333333334,0,0,0.013020833333333334,67.6953125,0)" xlink:href="#ao"/><use transform="matrix(0.013020833333333334,0,0,0.013020833333333334,83.34635416666667,0)" xlink:href="#D"/><use transform="matrix(0.013020833333333334,0,0,0.013020833333333334,103.89322916666667,0)" xlink:href="#J"/><use transform="matrix(0.013020833333333334,0,0,0.013020833333333334,121.40625,0)" xlink:href="#ap"/></g><path fill="#fff" d="M657 26c-323 0-524-166-541-416h195c15 169 171 246 346 246 202 0 356-106 356-265 5-203-294-238-475-293-239-73-380-191-380-389 0-252 224-419 512-419 294 0 499 171 508 396H992c-17-145-151-228-328-228-193 0-321 102-321 242 0 156 175 211 284 241l149 41c160 44 422 134 422 412 0 244-197 432-541 432" id="aq"/><path fill="#fff" d="M140 405l46-156c120 36 205 19 263-150l32-93L54-1118h197c107 313 237 620 324 950 87-331 219-637 326-950h196L606 167c-68 178-176 259-334 259-64 0-113-12-132-21" id="ar"/><path fill="#fff" d="M613 24c-304 0-509-231-509-576 0-350 205-580 509-580 216 0 392 114 453 309l-173 49c-33-115-133-197-280-197-223 0-326 196-326 419 0 220 103 415 326 415 150 0 252-85 285-206l172 49C1010-95 832 24 613 24" id="as"/><g id="l"><use transform="matrix(0.010850694444444444,0,0,0.010850694444444444,0,0)" xlink:href="#aq"/><use transform="matrix(0.010850694444444444,0,0,0.010850694444444444,14.2578125,0)" xlink:href="#ar"/><use transform="matrix(0.010850694444444444,0,0,0.010850694444444444,26.74696180555556,0)" xlink:href="#ac"/><use transform="matrix(0.010850694444444444,0,0,0.010850694444444444,39.876302083333336,0)" xlink:href="#as"/></g><path fill="#fff" d="M180 0v-1490h510c348 0 508 209 508 474 0 266-160 477-507 477H370V0H180zm190-706h312c236 0 327-133 327-310 0-176-91-307-329-307H370v617" id="at"/><g id="m"><use transform="matrix(0.010850694444444444,0,0,0.010850694444444444,0,0)" xlink:href="#at"/><use transform="matrix(0.010850694444444444,0,0,0.010850694444444444,14.073350694444445,0)" xlink:href="#S"/><use transform="matrix(0.010850694444444444,0,0,0.010850694444444444,27.39800347222222,0)" xlink:href="#aj"/><use transform="matrix(0.010850694444444444,0,0,0.010850694444444444,39.127604166666664,0)" xlink:href="#Q"/></g><path fill="#fff" d="M180 0v-1490h908v168H370v486h669v168H370v500h727V0H180" id="au"/><path fill="#fff" d="M65 0l393-574-370-544h210c88 136 192 297 267 435 67-142 176-302 264-435h206L661-564 1053 0H844c-94-144-206-310-287-458C484-308 366-142 273 0H65" id="av"/><path fill="#fff" d="M383-449c-3-277 82-343 222-425 88-53 156-134 156-250 0-139-108-227-243-227-118 0-235 70-246 236H82c10-251 200-395 436-395 259 0 427 165 427 393 0 161-74 273-203 352-132 80-180 132-178 316H383zm93 462c-75 0-135-60-135-134 0-75 60-135 135-135 74 0 134 60 134 135 0 74-60 134-134 134" id="aw"/><g id="n"><use transform="matrix(0.010850694444444444,0,0,0.010850694444444444,0,0)" xlink:href="#au"/><use transform="matrix(0.010850694444444444,0,0,0.010850694444444444,13.35720486111111,0)" xlink:href="#av"/><use transform="matrix(0.010850694444444444,0,0,0.010850694444444444,25.48828125,0)" xlink:href="#V"/><use transform="matrix(0.010850694444444444,0,0,0.010850694444444444,30.870225694444443,0)" xlink:href="#aj"/><use transform="matrix(0.010850694444444444,0,0,0.010850694444444444,42.599826388888886,0)" xlink:href="#Q"/><use transform="matrix(0.010850694444444444,0,0,0.010850694444444444,49.65277777777778,0)" xlink:href="#aj"/><use transform="matrix(0.010850694444444444,0,0,0.010850694444444444,61.38237847222222,0)" xlink:href="#aw"/></g><path fill="#fff" d="M783 20c-382 0-661-292-661-764 0-473 279-766 661-766 302 0 548 182 601 489h-190c-42-204-217-313-411-313-268 0-476 208-476 590 0 381 209 588 476 588 195 0 369-110 411-313h190c-52 303-296 489-601 489" id="ax"/><g id="o"><use transform="matrix(0.010850694444444444,0,0,0.010850694444444444,0,0)" xlink:href="#ax"/><use transform="matrix(0.010850694444444444,0,0,0.010850694444444444,16.23263888888889,0)" xlink:href="#T"/><use transform="matrix(0.010850694444444444,0,0,0.010850694444444444,24.229600694444443,0)" xlink:href="#W"/><use transform="matrix(0.010850694444444444,0,0,0.010850694444444444,37.40234375,0)" xlink:href="#Y"/><use transform="matrix(0.010850694444444444,0,0,0.010850694444444444,49.88064236111111,0)" xlink:href="#Q"/><use transform="matrix(0.010850694444444444,0,0,0.010850694444444444,56.93359375000001,0)" xlink:href="#W"/></g><g id="p"><use transform="matrix(0.010850694444444444,0,0,0.010850694444444444,0,0)" xlink:href="#ad"/><use transform="matrix(0.010850694444444444,0,0,0.010850694444444444,16.536458333333332,0)" xlink:href="#ae"/><use transform="matrix(0.010850694444444444,0,0,0.010850694444444444,30.143229166666664,0)" xlink:href="#aa"/><use transform="matrix(0.010850694444444444,0,0,0.010850694444444444,43.75,0)" xlink:href="#Y"/><use transform="matrix(0.010850694444444444,0,0,0.010850694444444444,56.22829861111112,0)" xlink:href="#Q"/><use transform="matrix(0.010850694444444444,0,0,0.010850694444444444,63.28125000000001,0)" xlink:href="#W"/></g><path fill="#fff" d="M601 0v-560L49-1490h357l252 464c38 68 67 130 97 208 96-243 225-446 337-672h356L905-560V0H601" id="ay"/><path fill="#fff" d="M633 22C291 22 81-200 81-553c0-345 210-579 537-579 292 0 525 185 525 567v84H378c7 183 109 277 260 277 105 0 184-46 216-132l272 51C1071-99 893 22 633 22zM380-669h474c-15-146-94-237-233-237-143 0-229 99-241 237" id="az"/><path fill="#fff" d="M572 22C302 22 117-98 78-306l279-48c29 105 101 156 224 156 114 0 185-48 185-115 0-118-228-130-337-155-215-49-322-150-322-317 0-215 187-347 470-347 265 0 424 116 466 298l-266 47c-24-76-87-130-196-130-98 0-174 46-174 113 0 56 38 95 144 117l201 40c216 44 320 143 320 302 0 220-207 367-500 367" id="aA"/><g id="q"><use transform="matrix(0.008680555555555556,0,0,0.008680555555555556,0,0)" xlink:href="#ay"/><use transform="matrix(0.008680555555555556,0,0,0.008680555555555556,11.050347222222223,0)" xlink:href="#az"/><use transform="matrix(0.008680555555555556,0,0,0.008680555555555556,21.640625,0)" xlink:href="#aA"/></g><path fill="#fff" d="M628 22C291 22 81-210 81-554c0-346 210-578 547-578 336 0 547 232 547 578 0 344-211 576-547 576zm0-236c160 0 242-146 242-341 0-197-82-341-242-341S387-753 387-555c0 195 81 341 241 341" id="aB"/><g id="r"><use transform="matrix(0.008680555555555556,0,0,0.008680555555555556,0,0)" xlink:href="#L"/><use transform="matrix(0.008680555555555556,0,0,0.008680555555555556,13.550347222222223,0)" xlink:href="#aB"/></g><path fill="#fff" d="M677 24c-213 0-288-135-325-197h-20V0H158v-1490h180v551h14c37-59 106-193 324-193 279 0 474 222 474 576 0 356-194 580-473 580zm-27-161c209 0 317-186 317-421 0-232-105-413-317-413-206 0-314 166-314 413 0 249 111 421 314 421" id="aC"/><g id="s"><use transform="matrix(0.010850694444444444,0,0,0.010850694444444444,0,0)" xlink:href="#at"/><use transform="matrix(0.010850694444444444,0,0,0.010850694444444444,14.192708333333332,0)" xlink:href="#P"/><use transform="matrix(0.010850694444444444,0,0,0.010850694444444444,27.332899305555554,0)" xlink:href="#aC"/><use transform="matrix(0.010850694444444444,0,0,0.010850694444444444,40.939670138888886,0)" xlink:href="#af"/><use transform="matrix(0.010850694444444444,0,0,0.010850694444444444,46.32161458333333,0)" xlink:href="#V"/><use transform="matrix(0.010850694444444444,0,0,0.010850694444444444,51.70355902777778,0)" xlink:href="#as"/><use transform="matrix(0.010850694444444444,0,0,0.010850694444444444,64.61588541666666,0)" xlink:href="#Y"/><use transform="matrix(0.010850694444444444,0,0,0.010850694444444444,77.09418402777777,0)" xlink:href="#Q"/><use transform="matrix(0.010850694444444444,0,0,0.010850694444444444,84.36414930555554,0)" xlink:href="#V"/><use transform="matrix(0.010850694444444444,0,0,0.010850694444444444,89.74609374999997,0)" xlink:href="#S"/><use transform="matrix(0.010850694444444444,0,0,0.010850694444444444,103.07074652777776,0)" xlink:href="#ac"/></g><path fill="#fff" d="M481 0L54-1118h197c107 314 236 620 325 951 87-331 217-637 324-951h197L670 0H481" id="aD"/><g id="t"><use transform="matrix(0.010850694444444444,0,0,0.010850694444444444,0,0)" xlink:href="#ax"/><use transform="matrix(0.010850694444444444,0,0,0.010850694444444444,16.23263888888889,0)" xlink:href="#S"/><use transform="matrix(0.010850694444444444,0,0,0.010850694444444444,29.12326388888889,0)" xlink:href="#aD"/><use transform="matrix(0.010850694444444444,0,0,0.010850694444444444,41.178385416666664,0)" xlink:href="#W"/><use transform="matrix(0.010850694444444444,0,0,0.010850694444444444,54.13411458333333,0)" xlink:href="#T"/></g><g id="u"><use transform="matrix(0.010850694444444444,0,0,0.010850694444444444,0,0)" xlink:href="#ag"/><use transform="matrix(0.010850694444444444,0,0,0.010850694444444444,5.967881944444445,0)" xlink:href="#ah"/><use transform="matrix(0.010850694444444444,0,0,0.010850694444444444,25.43402777777778,0)" xlink:href="#Y"/><use transform="matrix(0.010850694444444444,0,0,0.010850694444444444,37.912326388888886,0)" xlink:href="#ai"/><use transform="matrix(0.010850694444444444,0,0,0.010850694444444444,51.54079861111111,0)" xlink:href="#W"/></g><path fill="#fff" d="M645 0H180v-1490h484c435 0 692 280 692 742 0 466-257 748-711 748zM370-168h263c363 0 539-218 539-580 0-358-176-574-521-574H370v1154" id="aE"/><path fill="#fff" d="M180 0v-1490h224l606 953c40 63 108 177 176 312-27-437-7-821-13-1265h190V0h-226C860-448 622-778 356-1262c27 476 11 792 15 1262H180" id="aF"/><g id="v"><use transform="matrix(0.010850694444444444,0,0,0.010850694444444444,0,0)" xlink:href="#ax"/><use transform="matrix(0.010850694444444444,0,0,0.010850694444444444,16.23263888888889,0)" xlink:href="#aE"/><use transform="matrix(0.010850694444444444,0,0,0.010850694444444444,32.26996527777778,0)" xlink:href="#aF"/></g><g id="w"><use transform="matrix(0.010850694444444444,0,0,0.010850694444444444,0,0)" xlink:href="#ax"/><use transform="matrix(0.010850694444444444,0,0,0.010850694444444444,16.23263888888889,0)" xlink:href="#S"/><use transform="matrix(0.010850694444444444,0,0,0.010850694444444444,29.557291666666664,0)" xlink:href="#ah"/><use transform="matrix(0.010850694444444444,0,0,0.010850694444444444,49.0234375,0)" xlink:href="#ah"/><use transform="matrix(0.010850694444444444,0,0,0.010850694444444444,68.48958333333333,0)" xlink:href="#V"/><use transform="matrix(0.010850694444444444,0,0,0.010850694444444444,73.87152777777777,0)" xlink:href="#Q"/></g><path fill="#fff" d="M580 20c-295 0-476-179-476-409 0-189 123-290 294-416-104-125-173-226-173-362 0-197 144-337 365-337 224 0 362 144 362 321 0 185-174 312-306 405l319 387c38-75 61-165 61-267h173c0 208-62 332-120 406L1287 0h-217L967-124C868-27 716 20 580 20zm279-273L507-675l-51 38c-123 91-167 162-167 254 0 147 113 246 278 246 107 0 210-41 292-116zM538-908l97-72c54-40 136-101 136-206 0-95-68-163-176-163-113 0-189 74-189 181 0 90 53 164 132 260" id="aG"/><use transform="matrix(0.010850694444444444,0,0,0.010850694444444444,0,0)" xlink:href="#aG" id="x"/><g id="y"><use transform="matrix(0.010850694444444444,0,0,0.010850694444444444,0,0)" xlink:href="#at"/><use transform="matrix(0.010850694444444444,0,0,0.010850694444444444,14.192708333333332,0)" xlink:href="#P"/><use transform="matrix(0.010850694444444444,0,0,0.010850694444444444,27.332899305555554,0)" xlink:href="#aj"/><use transform="matrix(0.010850694444444444,0,0,0.010850694444444444,39.0625,0)" xlink:href="#R"/></g><path fill="#fff" d="M180 0v-1490h510c348 0 508 194 508 460 0 198-88 351-276 417L1256 0h-220L726-579c-117 2-238 0-356 1V0H180zm190-747h312c235 0 327-108 327-283 0-177-92-293-329-293H370v576" id="aH"/><g id="z"><use transform="matrix(0.010850694444444444,0,0,0.010850694444444444,0,0)" xlink:href="#aH"/><use transform="matrix(0.010850694444444444,0,0,0.010850694444444444,13.975694444444445,0)" xlink:href="#W"/><use transform="matrix(0.010850694444444444,0,0,0.010850694444444444,26.931423611111104,0)" xlink:href="#ae"/><use transform="matrix(0.010850694444444444,0,0,0.010850694444444444,40.53819444444444,0)" xlink:href="#S"/><use transform="matrix(0.010850694444444444,0,0,0.010850694444444444,53.86284722222222,0)" xlink:href="#aj"/><use transform="matrix(0.010850694444444444,0,0,0.010850694444444444,65.59244791666667,0)" xlink:href="#V"/><use transform="matrix(0.010850694444444444,0,0,0.010850694444444444,70.97439236111111,0)" xlink:href="#Q"/><use transform="matrix(0.010850694444444444,0,0,0.010850694444444444,78.02734375,0)" xlink:href="#S"/><use transform="matrix(0.010850694444444444,0,0,0.010850694444444444,91.35199652777777,0)" xlink:href="#T"/><use transform="matrix(0.010850694444444444,0,0,0.010850694444444444,100.06510416666666,0)" xlink:href="#ar"/></g><path fill="#fff" d="M789 20c-398 0-667-293-667-764 0-473 273-766 655-766 315 0 558 198 612 487h-196c-61-191-204-311-415-311-262 0-471 207-471 590 0 380 208 588 482 588 249 0 420-165 425-427H828v-166h572v163c0 370-256 606-611 606" id="aI"/><path fill="#fff" d="M180 0v-1490h190v644h782v-644h190V0h-190v-678H370V0H180" id="aJ"/><g id="A"><use transform="matrix(0.010850694444444444,0,0,0.010850694444444444,0,0)" xlink:href="#aI"/><use transform="matrix(0.010850694444444444,0,0,0.010850694444444444,16.57986111111111,0)" xlink:href="#V"/><use transform="matrix(0.010850694444444444,0,0,0.010850694444444444,21.961805555555557,0)" xlink:href="#Q"/><use transform="matrix(0.010850694444444444,0,0,0.010850694444444444,29.231770833333336,0)" xlink:href="#aJ"/><use transform="matrix(0.010850694444444444,0,0,0.010850694444444444,45.74652777777778,0)" xlink:href="#P"/><use transform="matrix(0.010850694444444444,0,0,0.010850694444444444,58.88671875,0)" xlink:href="#aC"/></g><g id="B"><use transform="matrix(0.010850694444444444,0,0,0.010850694444444444,0,0)" xlink:href="#at"/><use transform="matrix(0.010850694444444444,0,0,0.010850694444444444,14.192708333333332,0)" xlink:href="#Y"/><use transform="matrix(0.010850694444444444,0,0,0.010850694444444444,26.671006944444443,0)" xlink:href="#ai"/><use transform="matrix(0.010850694444444444,0,0,0.010850694444444444,40.299479166666664,0)" xlink:href="#W"/><use transform="matrix(0.010850694444444444,0,0,0.010850694444444444,53.25520833333333,0)" xlink:href="#aj"/></g></defs></g></svg>